<svg xmlns="http://www.w3.org/2000/svg" viewBox="0 0 175.23 156.68"><defs><style>.cls-1{fill:#231f20;}</style></defs><title>decantare</title><g id="Layer_2" data-name="Layer 2"><g id="Layer_1-2" data-name="Layer 1"><path class="cls-1" d="M152.54,136.68a1.61,1.61,0,0,1-.9-.3,1.46,1.46,0,0,1-.3-2.1,11.23,11.23,0,0,0,2.4-6.7c0-7.2-8.3-14.2-22.7-19.2-11.1-3.8-20-11.2-25-20.7-12.1-22.8-5.3-53.1-5-54.3a1.49,1.49,0,0,1,2.9.7c-.1.3-6.8,30.4,4.8,52.3,4.7,8.8,13,15.7,23.3,19.3,16,5.5,24.7,13.3,24.7,22a14.44,14.44,0,0,1-3,8.5A1.5,1.5,0,0,1,152.54,136.68Z"/><path class="cls-1" d="M146.94,142.08a1.43,1.43,0,0,1-1.2-.6,1.55,1.55,0,0,1,.3-2.1,10.63,10.63,0,0,0,1.1-.9,1.49,1.49,0,1,1,1.9,2.3,10.59,10.59,0,0,0-1.2,1C147.64,142.08,147.24,142.08,146.94,142.08Z"/><path class="cls-1" d="M85.14,156.68c-40.2,0-71.6-12.7-71.6-29,0-7.1,6.2-13.9,17.6-19.2a.37.37,0,0,1,.3-.1c1.8-.8,3.8-1.6,5.8-2.4a37.65,37.65,0,0,0,13.4-8c8.5-8.2,13.4-20.4,14.5-36.2a1.54,1.54,0,0,1,1.6-1.4,1.62,1.62,0,0,1,1.4,1.6c-1.2,16.6-6.3,29.4-15.4,38.1a40.09,40.09,0,0,1-14.5,8.7c-2,.7-3.9,1.5-5.7,2.3h0c-10.3,4.7-16,10.6-16,16.5,0,14.1,31.4,26,68.6,26,21.1,0,40.7-3.7,53.9-10.1a1.53,1.53,0,0,1,2,.7,1.44,1.44,0,0,1-.7,2C126.74,152.88,106.64,156.68,85.14,156.68Z"/><path class="cls-1" d="M66.84,56.08a1.54,1.54,0,0,1-1.5-1.5v-2.2a111.8,111.8,0,0,0-2-18.3,1.49,1.49,0,0,1,2.9-.7,104.37,104.37,0,0,1,2.1,18.9v2.3a1.54,1.54,0,0,1-1.5,1.5Z"/><path class="cls-1" d="M83.64,40.38c-9.8,0-20.4-2.3-20.4-7.3s10.6-7.3,20.4-7.3,20.4,2.3,20.4,7.3S93.44,40.38,83.64,40.38Zm0-11.7c-11.5,0-17.4,3-17.4,4.3s5.9,4.3,17.4,4.3,17.4-3,17.4-4.3S95.14,28.68,83.64,28.68Z"/><ellipse class="cls-1" cx="72.64" cy="109.88" rx="3.4" ry="6.6"/><ellipse class="cls-1" cx="88.54" cy="109.88" rx="3.4" ry="6.6"/><path class="cls-1" d="M78.94,140.48c-4.3,0-7.8-4.1-7.8-9.1a1.5,1.5,0,0,1,3,0c0,3.3,2.1,6.1,4.8,6.1s4.8-2.7,4.8-6.1a1.5,1.5,0,0,1,3,0C86.64,136.38,83.14,140.48,78.94,140.48Z"/><path class="cls-1" d="M100.24,95.58c-4.2,0-8.3-2.4-12.2-4.8-4.3-2.5-8.7-5.1-13.5-5.1h0c-7.5,0-14.8,5.6-14.9,5.6a1.5,1.5,0,0,1-1.8-2.4c.3-.3,8.2-6.3,16.8-6.3h0c5.6,0,10.6,3,15,5.6,5.2,3.1,9.6,5.7,14,3.6a1.5,1.5,0,1,1,1.3,2.7A10.69,10.69,0,0,1,100.24,95.58Z"/><path class="cls-1" d="M164.84,66.18h-37.9c-.3,0-6.9-.1-10.1-4.6q-3-4.35-.3-11.7,2-5.1,6.3-6.6c4.2-1.4,9,.2,12,1.6-.3-3-.2-7.6,2.7-11,2.7-3.2,7.2-4.6,13.3-4.1,5.5.5,9.1,2.5,10.9,5.9,2.1,4,.9,9.1-.4,12.5a13,13,0,0,1,4.9-.6,10.39,10.39,0,0,1,7.4,3.7,8.2,8.2,0,0,1,1.5,6.2h0A10.27,10.27,0,0,1,164.84,66.18Zm-38.4-20.4a7.46,7.46,0,0,0-2.6.4,7.32,7.32,0,0,0-4.4,4.8c-1.4,3.9-1.4,6.9,0,8.9,2.3,3.3,7.6,3.3,7.6,3.3h37.9a7.25,7.25,0,0,0,7.3-6.2h0a5,5,0,0,0-.9-3.9,7.48,7.48,0,0,0-5.4-2.5,12.07,12.07,0,0,0-6.8,1.8,1.38,1.38,0,0,1-1.8-.2,1.53,1.53,0,0,1-.3-1.8c0-.1,4.7-8.2,2.1-13.3-1.3-2.4-4.1-3.9-8.5-4.2-5.1-.4-8.6.6-10.7,3-3.5,4.2-1.5,11.4-1.5,11.4a1.48,1.48,0,0,1-.6,1.6,1.51,1.51,0,0,1-1.7.1C136,48.88,131,45.78,126.44,45.78Z"/><path class="cls-1" d="M37.14,28.38H8.54A8.46,8.46,0,0,1,0,21.08H0c-.5-4.7,3.3-7.2,7.2-7.6a8.52,8.52,0,0,1,3.2.3c-.9-2.6-1.6-6.2-.1-9.1,1.4-2.7,4.3-4.3,8.6-4.6,4.8-.4,8.3.7,10.4,3.2a11.32,11.32,0,0,1,2.1,8c2.3-1,5.8-2,8.9-1a8.1,8.1,0,0,1,5,5.2c1.4,3.8,1.3,6.9-.3,9.2C42.54,28.38,37.34,28.38,37.14,28.38ZM8,16.48h-.5c-1.1.1-4.8.8-4.5,4.3H3a5.43,5.43,0,0,0,5.5,4.6h28.6s3.9-.1,5.5-2.4c1-1.5,1-3.6-.1-6.4a5.3,5.3,0,0,0-3.1-3.4c-3.1-1-7.6,1.1-9,2a1.51,1.51,0,0,1-1.7-.1,1.42,1.42,0,0,1-.5-1.6c0-.1,1.4-5.4-1.1-8.4-1.5-1.8-4.1-2.5-7.8-2.2-3.2.3-5.3,1.3-6.2,3-1.6,3.1.6,8.1,1.6,9.8a1.5,1.5,0,0,1-.3,1.8,1.38,1.38,0,0,1-1.8.2C12.54,17.78,10.34,16.48,8,16.48Z"/></g></g></svg>