<svg xmlns="http://www.w3.org/2000/svg" viewBox="0 0 166.97 189.03"><defs><style>.cls-1{fill:#231f20;}</style></defs><title>mancare</title><g id="Layer_2" data-name="Layer 2"><g id="Layer_1-2" data-name="Layer 1"><path class="cls-1" d="M94.75,22.43h-.2a2,2,0,0,1-1.8-1.5c-.9-3.4-1.9-9.8,1.7-15.2,2.2-3.3,7.1-6.4,11.2-5.6,2.6.5,4.3,2.4,5,5.4.9,4.3-2.7,6.5-6.2,8.5-2.9,1.7-6.3,3.7-7.9,7.2h0A1.83,1.83,0,0,1,94.75,22.43Zm-.9-2.4Zm10.5-17c-2.4,0-5.7,1.9-7.4,4.4-2.3,3.4-2.2,7.5-1.8,10.4,2.1-2.9,5.2-4.8,7.8-6.3,3.8-2.2,5.2-3.3,4.8-5.3-.4-1.8-1.3-2.8-2.6-3.1A2.2,2.2,0,0,0,104.35,3Z"/><path class="cls-1" d="M133.25,177.83a1.08,1.08,0,0,1-.7-.2l-3.3-1.6a1.5,1.5,0,1,1,1.3-2.7l3.3,1.6a1.63,1.63,0,0,1,.7,2A1.29,1.29,0,0,1,133.25,177.83Z"/><path class="cls-1" d="M139.75,180.23a7.11,7.11,0,0,1-3.2-.7,1.52,1.52,0,0,1,1.2-2.8,4.67,4.67,0,0,0,4,0,4.83,4.83,0,0,0,2.8-2.8,5.06,5.06,0,0,0-2.8-6.5l-61.2-24.5a1.06,1.06,0,0,1-.7-.6c-.1-.1-8.8-14.9-25.3-23.2-10.7-5.4-25.9-6.6-46.7-6.2l116.4,57.2a1.5,1.5,0,1,1-1.3,2.7L.85,112.93a1.48,1.48,0,0,1-.8-1.7,1.48,1.48,0,0,1,1.4-1.2c24.4-.6,42.1.2,54.3,6.4,15.8,8,24.6,21.3,26.3,23.9l60.7,24.3a8,8,0,0,1,4.5,10.3,7.8,7.8,0,0,1-4.4,4.5A6,6,0,0,1,139.75,180.23Z"/><path class="cls-1" d="M87.75,118.13h-1.9c-20.6,0-36.2-16.4-36.2-38.1,0-.8-.8-21.2,11.3-53.9a1.5,1.5,0,0,1,1.4-1h48.7a1.5,1.5,0,0,1,1.4,1c.7,2,1.4,3.9,2.1,5.9a1.49,1.49,0,1,1-2.8,1c-.5-1.6-1.1-3.2-1.7-4.9H63.55c-11.5,31.5-10.8,51.7-10.8,51.9,0,20,14.3,35.1,33.2,35.1h1.9c18.9,0,33.2-15.1,33.2-35.1,0-.2.5-14.5-6.2-37.8-.4-1.2-.7-2.5-1.1-3.8a1.52,1.52,0,1,1,2.9-.9c.4,1.3.8,2.6,1.1,3.8,6.9,23.8,6.3,38.1,6.3,38.7C124,101.83,108.35,118.13,87.75,118.13Z"/><path class="cls-1" d="M54,57.63a1.71,1.71,0,0,1-1.3-.7,1.6,1.6,0,0,1,.5-2.1c12.4-7.4,21.7-5.4,30.7-3.4,9.6,2.1,18.7,4.1,31.4-5.9a1.5,1.5,0,1,1,1.8,2.4c-13.8,10.9-24.1,8.6-33.9,6.5-8.8-1.9-17.1-3.7-28.5,3.1C54.45,57.53,54.15,57.63,54,57.63Z"/><path class="cls-1" d="M86.85,182.13a1.54,1.54,0,0,1-1.5-1.5v-64a1.5,1.5,0,0,1,3,0v64A1.54,1.54,0,0,1,86.85,182.13Z"/><path class="cls-1" d="M105.75,189h-38a1.52,1.52,0,0,1-1.5-1.4,1.46,1.46,0,0,1,1.2-1.6,16.28,16.28,0,0,0,5.7-2.6c3.2-2,6.8-4.3,13.5-4.3,6.9,0,10.5,2.3,13.7,4.3a18.09,18.09,0,0,0,5.6,2.7,1.59,1.59,0,0,1,1.2,1.6A1.29,1.29,0,0,1,105.75,189Zm-31-3h24.3l-.1-.1c-3-1.9-6.1-3.8-12.1-3.8a19.28,19.28,0,0,0-11.9,3.8C74.85,185.93,74.85,186,74.75,186Z"/><path class="cls-1" d="M99.65,74.63c-3.2,0-5.7-3.2-5.7-7.3a1.5,1.5,0,0,1,3,0c0,2.3,1.3,4.3,2.7,4.3s2.7-2,2.7-4.3a1.5,1.5,0,0,1,3,0C105.35,71.43,102.85,74.63,99.65,74.63Z"/><path class="cls-1" d="M73.35,74.63c-3.2,0-5.7-3.2-5.7-7.3a1.5,1.5,0,0,1,3,0c0,2.3,1.3,4.3,2.7,4.3s2.7-2,2.7-4.3a1.5,1.5,0,0,1,3,0C79.15,71.43,76.55,74.63,73.35,74.63Z"/><path class="cls-1" d="M86.85,101.13c-5.7,0-10.4-5.8-10.4-12.8a1.5,1.5,0,0,1,3,0c0,5.4,3.3,9.8,7.4,9.8s7.4-4.4,7.4-9.8a1.5,1.5,0,0,1,3,0C97.15,95.33,92.55,101.13,86.85,101.13Z"/><path class="cls-1" d="M101.75,151.43a1.71,1.71,0,0,1-1.3-.7,1.6,1.6,0,0,1,.5-2.1l21.8-13a1.49,1.49,0,0,1,1.7.1c4.6,3.9,11.3,3.7,19.3-.6l19.6-10.6a1.56,1.56,0,0,0,.6-.8,1.36,1.36,0,0,0-.2-1,1.24,1.24,0,0,0-1.7-.2l-15.3,8.2a5,5,0,0,1-6.2-1.2,4.62,4.62,0,0,1-.9-3.9,4.89,4.89,0,0,1,2.4-3.2l15.5-8.3a1.35,1.35,0,0,0,.7-1.6,1.42,1.42,0,0,0-.7-.8,1.18,1.18,0,0,0-1,.1l-15.6,8.4a5,5,0,0,1-6.2-1.2,4.62,4.62,0,0,1-.9-3.9,4.89,4.89,0,0,1,2.4-3.2l15.7-8.4a1.35,1.35,0,0,0,.7-1.6,1.42,1.42,0,0,0-.7-.8,1.18,1.18,0,0,0-1,.1l-21.2,11.3c-7.1,3.8-10.6,9.1-9.9,14.9a1.41,1.41,0,0,1-.8,1.5l-28,15.5a1.48,1.48,0,0,1-1.4-2.6l27.1-15.1c-.4-6.6,3.8-12.7,11.6-16.9l21.1-11.2a4.13,4.13,0,0,1,3.6-.2,4.28,4.28,0,0,1,2.5,2.6,4.38,4.38,0,0,1-2.2,5.2l-15.7,8.4a1.59,1.59,0,0,0-.9,1.2,2.06,2.06,0,0,0,.3,1.5,2,2,0,0,0,2.4.4l15.6-8.4a4.13,4.13,0,0,1,3.6-.2,4.28,4.28,0,0,1,2.5,2.6,4.43,4.43,0,0,1-2.2,5.2l-15.5,8.3a1.59,1.59,0,0,0-.9,1.2,2.06,2.06,0,0,0,.3,1.5,2,2,0,0,0,2.4.4l15.3-8.2a4.41,4.41,0,0,1,5.5,1,4.06,4.06,0,0,1,.8,3.5,4.46,4.46,0,0,1-2.1,2.9l-19.6,10.6c-11.3,6.1-18.3,3.5-21.9,1l-20.9,12.4C102.25,151.43,102,151.43,101.75,151.43Z"/><path class="cls-1" d="M51,180.63a8.22,8.22,0,0,1-6.9-3.8,7.57,7.57,0,0,1-.9-6.2,8.2,8.2,0,0,1,4-5.1,1.48,1.48,0,0,1,1.4,2.6,5,5,0,0,0-2.5,3.2,5.36,5.36,0,0,0,.6,3.9,5.11,5.11,0,0,0,6.9,1.7L91,154.63a1.53,1.53,0,1,1,1.6,2.6l-37.5,22.3A8.69,8.69,0,0,1,51,180.63Z"/><path class="cls-1" d="M51.55,166.33a1.51,1.51,0,0,1-1.4-.9,1.53,1.53,0,0,1,.7-2l.4-.2a1.5,1.5,0,0,1,1.3,2.7l-.4.2A1.07,1.07,0,0,1,51.55,166.33Z"/><path class="cls-1" d="M55.55,164a1.56,1.56,0,0,1-1.3-.8,1.49,1.49,0,0,1,.6-2l23.4-13a1.48,1.48,0,0,1,1.4,2.6l-23.4,13A1,1,0,0,1,55.55,164Z"/></g></g></svg>