<svg xmlns="http://www.w3.org/2000/svg" viewBox="0 0 144.9 164.77"><defs><style>.cls-1{fill:#231f20;}</style></defs><title>temperatura</title><g id="Layer_2" data-name="Layer 2"><g id="Layer_1-2" data-name="Layer 1"><path class="cls-1" d="M6.4,56a1.71,1.71,0,0,1-1.3-.7,1.6,1.6,0,0,1,.5-2.1l9.9-5.8A1.53,1.53,0,0,1,17.1,50l-9.9,5.8A1.88,1.88,0,0,1,6.4,56Z"/><path class="cls-1" d="M139.5,17.67a.9.9,0,0,1-.5-.1l-12.8-4.2a1.58,1.58,0,0,1-1-1.9,1.58,1.58,0,0,1,1.9-1l12.8,4.2a1.58,1.58,0,0,1,1,1.9A1.47,1.47,0,0,1,139.5,17.67Z"/><path class="cls-1" d="M12.5,89.87a1.52,1.52,0,0,1-1.5-1.4,20.76,20.76,0,0,1,4.4-14L.2,47.37a1.41,1.41,0,0,1,.6-2l10.7-6a1.42,1.42,0,0,1,1.1-.1,1.6,1.6,0,0,1,.9.7l8.1,14.4a1.48,1.48,0,0,1-2.6,1.4l-7.4-13.1-8.1,4.6,15,26.6a1.49,1.49,0,0,1-.2,1.7,17.52,17.52,0,0,0-4.4,12.7c.2.8-.5,1.5-1.4,1.6Z"/><path class="cls-1" d="M62.3,104.67a1.56,1.56,0,0,1-1.3-.8L46.6,78.47a17.55,17.55,0,0,0-18.4-8.6,1.73,1.73,0,0,1-1.6-.7l-4.4-7.4a1.53,1.53,0,1,1,2.6-1.6l3.9,6.5a20.37,20.37,0,0,1,20.5,10.2l14.4,25.4a1.41,1.41,0,0,1-.6,2A.67.67,0,0,1,62.3,104.67Z"/><path class="cls-1" d="M6.4,56a1.71,1.71,0,0,1-1.3-.7,1.6,1.6,0,0,1,.5-2.1l9.9-5.8A1.53,1.53,0,0,1,17.1,50l-9.9,5.8A1.88,1.88,0,0,1,6.4,56Z"/><path class="cls-1" d="M76.7,110a.9.9,0,0,1-.5-.1,1.45,1.45,0,0,1-.9-1.9l1.6-4.5a1.49,1.49,0,1,1,2.8,1L78.1,109A1.5,1.5,0,0,1,76.7,110Z"/><path class="cls-1" d="M123.9,109.67a.9.9,0,0,1-.5-.1,1.45,1.45,0,0,1-.9-1.9L137,66a20.88,20.88,0,0,0-6.8-23.1,1.57,1.57,0,0,1-.5-1.7l11.7-34-10.8-3.7-11.8,34.1a1.5,1.5,0,0,1-1.4,1h0a20.62,20.62,0,0,0-19.6,13.9L81.6,99.17a1.49,1.49,0,1,1-2.8-1L95,51.47a23.71,23.71,0,0,1,21.4-15.9l12-34.5a1.42,1.42,0,0,1,.8-.9,1.45,1.45,0,0,1,1.1-.1l13.6,4.7a1.45,1.45,0,0,1,.9,1.9l-12,34.5a23.74,23.74,0,0,1,7,25.8l-14.5,41.7A1.38,1.38,0,0,1,123.9,109.67Z"/><path class="cls-1" d="M112.5,164.67h-6a1.5,1.5,0,0,1,0-3h5c2.1-6.2,13-37.9,23.2-57.4-9,5.8-27.9,14.2-54.9,6.6-13.8-3.9-23.3-8.6-31.7-12.7-14.3-7.1-24-11.8-44-6.6,8.8,13.2,38.7,58.6,41.3,70.2H99.1a1.5,1.5,0,0,1,0,3H43.9a1.55,1.55,0,0,1-1.5-1.7c.6-5.4-25.5-46.8-42.1-71.6a1.7,1.7,0,0,1-.2-1.4,1.3,1.3,0,0,1,1-.9c22.5-6.4,33.3-1.1,48.1,6.3,8.3,4.1,17.6,8.7,31.2,12.5,37.1,10.5,57.8-10.2,58-10.4a1.52,1.52,0,0,1,2-.1,1.55,1.55,0,0,1,.4,2c-11.7,19-26.7,63.8-26.9,64.3A1.57,1.57,0,0,1,112.5,164.67Z"/><path class="cls-1" d="M55.2,101.57a1.56,1.56,0,0,1-1.3-.8l-7.2-12.7L38.2,93a1.48,1.48,0,0,1-1.4-2.6l9.8-5.6a1.42,1.42,0,0,1,1.1-.1,2,2,0,0,1,.9.7l8,14a1.41,1.41,0,0,1-.6,2A3.09,3.09,0,0,1,55.2,101.57Z"/><path class="cls-1" d="M116.5,112.07a.9.9,0,0,1-.5-.1,1.45,1.45,0,0,1-.9-1.9l1.5-4.4a1.49,1.49,0,1,1,2.8,1l-1.5,4.4A1.5,1.5,0,0,1,116.5,112.07Z"/><path class="cls-1" d="M82.3,111.57a.9.9,0,0,1-.5-.1,1.45,1.45,0,0,1-.9-1.9l15.2-44.1a1.42,1.42,0,0,1,.8-.9,1.45,1.45,0,0,1,1.1-.1l30.8,10.6a1.45,1.45,0,0,1,.9,1.9l-7,20.2a1.49,1.49,0,0,1-2.8-1l6.5-18.8-27.9-9.6-14.7,42.7A1.69,1.69,0,0,1,82.3,111.57Z"/><ellipse class="cls-1" cx="111.81" cy="58.9" rx="5.5" ry="2.3" transform="translate(25.67 151.37) rotate(-74.81)"/><ellipse class="cls-1" cx="119.87" cy="61.17" rx="5.5" ry="2.3" transform="matrix(0.26, -0.97, 0.97, 0.26, 29.43, 160.83)"/><path class="cls-1" d="M110.2,90a14.94,14.94,0,0,1-4-.6c-9.2-2.6-9.4-11.5-8.2-15.9a1.6,1.6,0,0,1,.7-.9,1.67,1.67,0,0,1,1.2-.1l20.8,7.2a1.42,1.42,0,0,1,.9.8,1.67,1.67,0,0,1,.1,1.2C120.5,84.77,116.8,90,110.2,90Zm-9.5-14.1c-.3,2.9-.2,8.8,6.4,10.6s9.9-2.3,11.2-4.5Z"/><path class="cls-1" d="M139.5,17.67a.9.9,0,0,1-.5-.1l-12.8-4.2a1.58,1.58,0,0,1-1-1.9,1.58,1.58,0,0,1,1.9-1l12.8,4.2a1.58,1.58,0,0,1,1,1.9A1.47,1.47,0,0,1,139.5,17.67Z"/><path class="cls-1" d="M110,123.87a1.47,1.47,0,0,1-1.4-1.1,1.58,1.58,0,0,1,1-1.9c8.7-2.6,14.6-6.8,17.6-12.7,4-7.9,1.1-16.1,1.1-16.2a1.49,1.49,0,0,1,2.8-1c.1.4,3.4,9.4-1.2,18.5-3.3,6.6-9.8,11.4-19.4,14.2A.65.65,0,0,1,110,123.87Z"/><path class="cls-1" d="M97.9,135.47c-2.5,0-4.5-1.1-5.2-3.1a4.28,4.28,0,0,1,.3-3.5c1-1.9,3.2-3.3,5.2-4.2-.1-.2-.3-.3-.4-.5a4,4,0,0,1-.3-3.7,3.4,3.4,0,0,1,1.9-2c3.4-1.4,10,1.6,11.2,2.3a1.48,1.48,0,0,1,.8,1.7c-1.8,8.1-7.9,12.7-13.1,13Zm3.7-14.4a3.08,3.08,0,0,0-1,.1c-.2.1-.2.1-.2.2-.2.5-.2.9,0,1.1a2.9,2.9,0,0,0,1.8.8,1.59,1.59,0,0,1,1.4,1.4,1.51,1.51,0,0,1-1.1,1.6c-2.1.6-5.9,2.2-6.8,3.9a1.42,1.42,0,0,0-.1,1.1c.3.9,1.6,1.1,2.7,1,3.1-.2,8.2-2.9,10-9.5C106.1,122.07,103.3,121.07,101.6,121.07Z"/></g></g></svg>