<svg xmlns="http://www.w3.org/2000/svg" viewBox="0 0 187.6 187.55"><defs><style>.cls-1{fill:#231f20;}</style></defs><title>timp</title><g id="Layer_2" data-name="Layer 2"><g id="Layer_1-2" data-name="Layer 1"><path class="cls-1" d="M186.15,108.45a1.5,1.5,0,0,1-1.1-.4l-9.3-9.3a1.48,1.48,0,0,1,2.1-2.1l9.3,9.3a1.45,1.45,0,0,1,0,2.1A1.53,1.53,0,0,1,186.15,108.45Z"/><path class="cls-1" d="M142.85,65.05a1.5,1.5,0,0,1-1.1-.4L79.65,2.55a1.45,1.45,0,0,1,0-2.1,1.45,1.45,0,0,1,2.1,0l62.1,62.1a1.45,1.45,0,0,1,0,2.1A1.28,1.28,0,0,1,142.85,65.05Z"/><path class="cls-1" d="M99.75,178.75a1.5,1.5,0,0,1-1.1-.4L2.15,81a1.45,1.45,0,0,1,0-2.1,1.45,1.45,0,0,1,2.1,0l96.5,97.4a1.45,1.45,0,0,1,0,2.1A1.28,1.28,0,0,1,99.75,178.75Z"/><path class="cls-1" d="M179.75,187.55h-49.2a1.54,1.54,0,0,1-1.5-1.5v-73.8c0-7.2,3.2-18,9.6-32a84.6,84.6,0,0,0,7.7-35.2,1.5,1.5,0,0,1,3,0,87.23,87.23,0,0,1-8,36.4c-6.1,13.4-9.3,24.1-9.3,30.7v72.3h46.2v-72.3c0-6.7-3.2-17.3-9.3-30.7a87.23,87.23,0,0,1-8-36.4V29.35h-11.6V36a1.5,1.5,0,1,1-3,0v-8.2a1.54,1.54,0,0,1,1.5-1.5h14.6a1.54,1.54,0,0,1,1.5,1.5V45a84.6,84.6,0,0,0,7.7,35.2c6.4,14,9.6,24.8,9.6,32v73.8A1.54,1.54,0,0,1,179.75,187.55Z"/><path class="cls-1" d="M179.75,177.05h-5.1a1.5,1.5,0,0,1,0-3h3.6V112h-36.8a1.5,1.5,0,0,1,0-3h38.3a1.54,1.54,0,0,1,1.5,1.5v65.1A1.54,1.54,0,0,1,179.75,177.05Z"/><path class="cls-1" d="M159.45,177.05h-28.9a1.54,1.54,0,0,1-1.5-1.5v-65.1a1.54,1.54,0,0,1,1.5-1.5h4.5a1.5,1.5,0,0,1,0,3h-3v62.1h27.4a1.54,1.54,0,0,1,1.5,1.5A1.47,1.47,0,0,1,159.45,177.05Z"/><path class="cls-1" d="M168.65,177.05h-3a1.5,1.5,0,0,1,0-3h3a1.5,1.5,0,1,1,0,3Z"/><path class="cls-1" d="M155.15,148.05a13.9,13.9,0,1,1,13.9-13.9A13.93,13.93,0,0,1,155.15,148.05Zm0-24.9A10.9,10.9,0,1,0,166,134,10.93,10.93,0,0,0,155.15,123.15Z"/><path class="cls-1" d="M154,139.15c6.9,0,6.9-10.7,0-10.7s-6.9,10.7,0,10.7Z"/><path class="cls-1" d="M169.35,166.45a12.83,12.83,0,0,1-3.8-.5c-4.8-1.2-8.7-4.6-11.8-10.3a1.34,1.34,0,0,1,.5-1.9c10.5-7.4,17.3-.5,21.8,4a20.13,20.13,0,0,0,3.4,3,1.44,1.44,0,0,1,.8,1.3,1.36,1.36,0,0,1-.7,1.3A18.76,18.76,0,0,1,169.35,166.45Zm-12.2-10.9c2.5,4.1,5.6,6.7,9.2,7.6a15.38,15.38,0,0,0,9.7-1.1c-.7-.6-1.3-1.3-2.1-2C169.65,155.65,164.85,150.85,157.15,155.55Z"/><path class="cls-1" d="M141,166.45a21.17,21.17,0,0,1-10.3-3,1.71,1.71,0,0,1-.7-1.3,1.56,1.56,0,0,1,.8-1.3,16.89,16.89,0,0,0,3.4-3c4.5-4.6,11.4-11.4,21.8-4a1.57,1.57,0,0,1,.5,1.9c-3,5.6-7,9.1-11.8,10.3A16.1,16.1,0,0,1,141,166.45Zm-6.7-4.5a14.91,14.91,0,0,0,9.7,1.1c3.6-.9,6.7-3.4,9.2-7.6-7.7-4.7-12.6.1-16.8,4.4Z"/><path class="cls-1" d="M160.15,29.35h-10.5a1.51,1.51,0,0,1-1.5-1.3l-1.8-15.2a1.37,1.37,0,0,1,.4-1.2,1.61,1.61,0,0,1,1.1-.5H162a1.55,1.55,0,0,1,1.5,1.7L161.65,28A1.5,1.5,0,0,1,160.15,29.35Zm-9.2-3h7.8l1.5-12.2h-10.7Z"/><path class="cls-1" d="M116.85,78.65a15.32,15.32,0,0,1-10.7-4.4,14.8,14.8,0,0,1-4.4-10.7,15.22,15.22,0,0,1,4.4-10.7h0a15,15,0,0,1,21.3,0,14.8,14.8,0,0,1,4.4,10.7,15.22,15.22,0,0,1-4.4,10.7A14.74,14.74,0,0,1,116.85,78.65Zm-8.5-23.7a11.93,11.93,0,0,0-3.5,8.6,12.35,12.35,0,0,0,3.5,8.6,12.13,12.13,0,0,0,17.1,0,11.93,11.93,0,0,0,3.5-8.6,12.35,12.35,0,0,0-3.5-8.6,12.13,12.13,0,0,0-17.1,0Z"/><path class="cls-1" d="M64.35,130.85a15.4,15.4,0,0,1-10.7-4.4,14.8,14.8,0,0,1-4.4-10.7,15.22,15.22,0,0,1,4.4-10.7h0a14.8,14.8,0,0,1,10.7-4.4,15.22,15.22,0,0,1,10.7,4.4,14.8,14.8,0,0,1,4.4,10.7,15.22,15.22,0,0,1-4.4,10.7A15.4,15.4,0,0,1,64.35,130.85Zm0-27.2a12.54,12.54,0,0,0-8.6,3.5h0a11.93,11.93,0,0,0-3.5,8.6,12.35,12.35,0,0,0,3.5,8.6,11.77,11.77,0,0,0,8.6,3.5,12.54,12.54,0,0,0,8.6-3.5,11.93,11.93,0,0,0,3.5-8.6,12,12,0,0,0-12.1-12.1Zm-9.6,2.5Z"/><path class="cls-1" d="M116.65,131.05a15.4,15.4,0,0,1-10.7-4.4,14.8,14.8,0,0,1-4.4-10.7,15.22,15.22,0,0,1,4.4-10.7,14.8,14.8,0,0,1,10.7-4.4,15.22,15.22,0,0,1,10.7,4.4h0a14.8,14.8,0,0,1,4.4,10.7,15.22,15.22,0,0,1-4.4,10.7A15,15,0,0,1,116.65,131.05Zm0-27.2a12.54,12.54,0,0,0-8.6,3.5,11.93,11.93,0,0,0-3.5,8.6,12.35,12.35,0,0,0,3.5,8.6,11.93,11.93,0,0,0,8.6,3.5,12.54,12.54,0,0,0,8.6-3.5,11.77,11.77,0,0,0,3.5-8.6,12.35,12.35,0,0,0-3.5-8.6h0A11.93,11.93,0,0,0,116.65,103.85Z"/><path class="cls-1" d="M64.55,78.45A15.32,15.32,0,0,1,53.85,74a14.8,14.8,0,0,1-4.4-10.7,15.22,15.22,0,0,1,4.4-10.7,15,15,0,0,1,21.3,0h0a15,15,0,0,1,0,21.3A14.78,14.78,0,0,1,64.55,78.45Zm0-27.2a12.45,12.45,0,0,0-8.6,3.5,11.93,11.93,0,0,0-3.5,8.6,12.35,12.35,0,0,0,3.5,8.6A12.09,12.09,0,0,0,73,54.85,11.73,11.73,0,0,0,64.55,51.25Z"/><path class="cls-1" d="M38.35,117.25a2.1,2.1,0,0,1-1.1-.4l-26.2-26.2a1.48,1.48,0,0,1,2.1-2.1l25.1,25.1,24.1-24.1-25.1-25.1a1.48,1.48,0,1,1,2.1-2.1l26.2,26.2a1.45,1.45,0,0,1,0,2.1l-26.2,26.1A1.23,1.23,0,0,1,38.35,117.25Z"/><path class="cls-1" d="M90.65,169.65a2.1,2.1,0,0,1-1.1-.4l-26.2-26.2a1.5,1.5,0,0,1-.4-1.1,2.1,2.1,0,0,1,.4-1.1l26.2-26.2a1.45,1.45,0,0,1,2.1,0l26.2,26.2a1.45,1.45,0,0,1,0,2.1l-26.2,26.2A1.23,1.23,0,0,1,90.65,169.65Zm-24-27.7,24.1,24.1,24.1-24.1-24.1-24.1Z"/><path class="cls-1" d="M64.55,143.45h0a2.1,2.1,0,0,1-1.1-.4l-26.2-26.3a1.45,1.45,0,0,1,0-2.1l26.2-26.2a1.45,1.45,0,0,1,2.1,0l26.2,26.2a1.5,1.5,0,0,1,.4,1.1,2.1,2.1,0,0,1-.4,1.1l-26.2,26.2A1.78,1.78,0,0,1,64.55,143.45Zm-24.1-27.7,24.1,24,24.1-24.1-24.1-24.1Z"/><path class="cls-1" d="M90.55,104.75a15.1,15.1,0,1,1,15.1-15.1A15.15,15.15,0,0,1,90.55,104.75Zm0-27.2a12.1,12.1,0,1,0,12.1,12.1A12.08,12.08,0,0,0,90.55,77.55Z"/><path class="cls-1" d="M133,100.55a1.61,1.61,0,0,1-1.1-.5,15,15,0,0,1,9.4-25.4,1.5,1.5,0,0,1,.2,3,12.06,12.06,0,0,0-7.5,20.4,1.45,1.45,0,0,1,0,2.1A1.16,1.16,0,0,1,133,100.55Z"/><path class="cls-1" d="M38.45,104.75a15.1,15.1,0,1,1,15.1-15.1A15.15,15.15,0,0,1,38.45,104.75Zm0-27.2a12.1,12.1,0,1,0,12.1,12.1A12.08,12.08,0,0,0,38.45,77.55Z"/><path class="cls-1" d="M90.55,156.95a15.1,15.1,0,1,1,15.1-15.1A15.15,15.15,0,0,1,90.55,156.95Zm0-27.2a12.1,12.1,0,1,0,12.1,12.1A12.08,12.08,0,0,0,90.55,129.75Z"/><path class="cls-1" d="M64.65,69.05a5.5,5.5,0,1,1,3.9-9.4h0a5.55,5.55,0,0,1,0,7.8A5.13,5.13,0,0,1,64.65,69.05Zm0-8a2.4,2.4,0,0,0-2.5,2.5,2.88,2.88,0,0,0,.7,1.8,2.53,2.53,0,0,0,3.6,0,2.41,2.41,0,0,0,.7-1.8,2.88,2.88,0,0,0-.7-1.8h0A2.41,2.41,0,0,0,64.65,61.05Z"/><path class="cls-1" d="M116.65,121.45a5.52,5.52,0,0,1-3.9-1.6,5.43,5.43,0,0,1,0-7.8,5.55,5.55,0,0,1,7.8,0h0a5.43,5.43,0,0,1,0,7.8A5.52,5.52,0,0,1,116.65,121.45Zm0-8.1a2.41,2.41,0,0,0-1.8.7,2.55,2.55,0,1,0,3.6,0A2.87,2.87,0,0,0,116.65,113.35Z"/><path class="cls-1" d="M64.55,121.25a5.52,5.52,0,0,1-3.9-1.6,5.43,5.43,0,0,1,0-7.8h0a5.55,5.55,0,0,1,7.8,0,5.5,5.5,0,0,1-3.9,9.4Zm0-8.1a2.88,2.88,0,0,0-1.8.7h0a2.55,2.55,0,1,0,3.6,0A3.12,3.12,0,0,0,64.55,113.15Zm-2.9-.3Z"/><path class="cls-1" d="M116.85,69.25a5.52,5.52,0,0,1-3.9-9.4h0a5.52,5.52,0,0,1,7.8,7.8A5.13,5.13,0,0,1,116.85,69.25Zm-1.8-7.3a2.55,2.55,0,0,0,3.6,3.6,2.41,2.41,0,0,0,.7-1.8,2.88,2.88,0,0,0-.7-1.8,2.53,2.53,0,0,0-3.6,0Z"/><path class="cls-1" d="M38.45,95.15a5.48,5.48,0,0,1-5.5-5.5,5.55,5.55,0,0,1,5.5-5.5,5.48,5.48,0,0,1,5.5,5.5A5.55,5.55,0,0,1,38.45,95.15Zm0-8.1a2.5,2.5,0,1,0,2.5,2.5A2.48,2.48,0,0,0,38.45,87.05Z"/><path class="cls-1" d="M90.55,43.05a5.48,5.48,0,0,1-5.5-5.5,5.55,5.55,0,0,1,5.5-5.5,5.5,5.5,0,0,1,0,11Zm0-8.1a2.5,2.5,0,1,0,2.5,2.5A2.42,2.42,0,0,0,90.55,34.95Z"/><path class="cls-1" d="M90.55,95.25a5.48,5.48,0,0,1-5.5-5.5,5.55,5.55,0,0,1,5.5-5.5,5.5,5.5,0,0,1,0,11Zm0-8.1a2.5,2.5,0,1,0,2.5,2.5A2.42,2.42,0,0,0,90.55,87.15Z"/><path class="cls-1" d="M90.55,147.35a5.5,5.5,0,1,1,5.5-5.5A5.42,5.42,0,0,1,90.55,147.35Zm0-8.1a2.5,2.5,0,1,0,2.5,2.5A2.42,2.42,0,0,0,90.55,139.25Z"/><path class="cls-1" d="M90.55,52.55a15.1,15.1,0,1,1,15.1-15.1A15.15,15.15,0,0,1,90.55,52.55Zm0-27.2a12.1,12.1,0,1,0,12.1,12.1A12.08,12.08,0,0,0,90.55,25.35Z"/><path class="cls-1" d="M90.55,65.15a2.1,2.1,0,0,1-1.1-.4l-26.1-26.2a1.48,1.48,0,0,1,2.1-2.1l25.1,25.1,24.1-24.1-25.1-25.1a1.48,1.48,0,1,1,2.1-2.1l26.2,26.1a1.45,1.45,0,0,1,0,2.1l-26.2,26.3A2.1,2.1,0,0,1,90.55,65.15Z"/><path class="cls-1" d="M131.65,105.55a1.28,1.28,0,0,1-1-.4l-14.9-14.3a1.61,1.61,0,0,1-.5-1.1,2.1,2.1,0,0,1,.4-1.1l26.2-26.2A1.5,1.5,0,0,1,143,62h0a2.1,2.1,0,0,1,1.1.4l1.9,1.9a1.48,1.48,0,0,1-2.1,2.1l-.9-.9-24,24,13.8,13.3a1.45,1.45,0,0,1,0,2.1A1.16,1.16,0,0,1,131.65,105.55Z"/><path class="cls-1" d="M64.55,91.05a2.1,2.1,0,0,1-1.1-.4l-26.2-26.2a1.48,1.48,0,1,1,2.1-2.1l25.1,25.1,24.1-24.1-25.1-25.1a1.48,1.48,0,1,1,2.1-2.1l26.2,26.2a1.5,1.5,0,0,1,.4,1.1,2.1,2.1,0,0,1-.4,1.1l-26.2,26.2A2.93,2.93,0,0,1,64.55,91.05Z"/><path class="cls-1" d="M116.85,143.45a1.5,1.5,0,0,1-1.1-.4l-26.1-26.3a1.45,1.45,0,0,1,0-2.1l26.2-26.2a1.45,1.45,0,0,1,2.1,0l14.6,14.6a1.48,1.48,0,1,1-2.1,2.1l-13.6-13.5-24,24.1,24,24,12.6-12.6a1.48,1.48,0,1,1,2.1,2.1l-13.7,13.7A1.23,1.23,0,0,1,116.85,143.45Z"/><path class="cls-1" d="M90.65,117.25a2.1,2.1,0,0,1-1.1-.4l-26.2-26.2a1.5,1.5,0,0,1-.4-1.1,2.1,2.1,0,0,1,.4-1.1l26.2-26.2a1.5,1.5,0,0,1,1.1-.4h0a2.1,2.1,0,0,1,1.1.4l26.2,26.2a1.45,1.45,0,0,1,0,2.1l-26.2,26.2A1.61,1.61,0,0,1,90.65,117.25Zm-24-27.7,24.1,24.1,24.1-24.1-24.1-24.1Z"/><path class="cls-1" d="M172.75,88.05a1.5,1.5,0,0,1-1.1-.4,1.45,1.45,0,0,1,0-2.1l3.2-3.2a1.48,1.48,0,1,1,2.1,2.1l-3.2,3.2A2.11,2.11,0,0,1,172.75,88.05Z"/><path class="cls-1" d="M1.55,101.05a1.5,1.5,0,0,1-1.1-.4,1.45,1.45,0,0,1,0-2.1l97-96.9a1.45,1.45,0,0,1,2.1,0,1.45,1.45,0,0,1,0,2.1l-97,96.9A1.78,1.78,0,0,1,1.55,101.05Z"/><path class="cls-1" d="M20.25,134.75a1.5,1.5,0,0,1-1.1-.4,1.45,1.45,0,0,1,0-2.1l105.5-105.4a1.48,1.48,0,1,1,2.1,2.1L21.35,134.35A1.5,1.5,0,0,1,20.25,134.75Z"/><path class="cls-1" d="M131.65,105.55a1.5,1.5,0,0,1-1.1-.4L57,31.65a1.48,1.48,0,0,1,2.1-2.1l73.5,73.5a1.45,1.45,0,0,1,0,2.1A1.28,1.28,0,0,1,131.65,105.55Z"/><path class="cls-1" d="M129.75,156.35a1.5,1.5,0,0,1-1.1-.4L23.25,50.45a1.48,1.48,0,1,1,2.1-2.1l105.4,105.5a1.45,1.45,0,0,1,0,2.1A1.43,1.43,0,0,1,129.75,156.35Z"/><path class="cls-1" d="M54.15,153.75a1.5,1.5,0,0,1-1.1-.4,1.45,1.45,0,0,1,0-2.1l92.4-92.3a1.48,1.48,0,1,1,2.1,2.1l-92.4,92.3A1.53,1.53,0,0,1,54.15,153.75Z"/></g></g></svg>